<svg version="1.1" id="Layer_1" xmlns="http://www.w3.org/2000/svg" xmlns:xlink="http://www.w3.org/1999/xlink" x="0px" y="0px"
	 width="100%" viewBox="0 0 295 350" enable-background="new 0 0 295 350" xml:space="preserve">
<path fill="transparent" opacity="1.000000" stroke="none" 
	d="
M1.000000,167.000000 
	C1.000000,111.354713 1.000000,56.209427 1.000000,1.032070 
	C99.273834,1.032070 197.547684,1.032070 295.910767,1.032070 
	C295.910767,117.561897 295.910767,234.123886 295.910767,350.842957 
	C197.666855,350.842957 99.333458,350.842957 1.000000,350.842957 
	C1.000000,289.785736 1.000000,228.642868 1.000000,167.000000 
M168.038940,13.052095 
	C151.887360,13.092290 135.734421,13.282387 119.584564,13.135098 
	C98.953979,12.946943 80.065193,18.522337 63.171310,30.239100 
	C36.116718,49.002831 21.330736,74.974861 20.118349,107.916489 
	C19.353395,128.700867 19.990171,149.537292 20.047606,170.350235 
	C20.050861,171.529968 20.503046,172.708450 20.746290,173.887497 
	C21.092028,173.920975 21.437765,173.954437 21.783503,173.987915 
	C23.546719,169.668839 25.309933,165.349747 27.652578,160.704498 
	C29.479258,158.326309 31.346668,155.978180 33.126427,153.565384 
	C55.273823,123.540390 84.947189,108.795776 122.301849,108.984734 
	C161.797394,109.184532 201.297409,109.217697 240.790909,108.842735 
	C266.825684,108.595558 287.880585,86.665115 287.830444,60.795113 
	C287.780457,35.015369 266.378235,13.373388 240.395905,13.114643 
	C222.234390,12.933781 204.069366,13.106730 185.034454,12.818416 
	C179.678986,12.927037 174.323502,13.035659 168.038940,13.052095 
M118.986237,226.417496 
	C122.645950,226.331711 126.305542,226.177826 129.965393,226.171249 
	C152.619354,226.130600 175.279388,226.439636 197.925537,226.008911 
	C217.669052,225.633408 235.341644,212.223129 241.560349,192.755661 
	C246.809433,176.323624 243.468918,157.108414 227.540207,143.334274 
	C219.038803,135.982819 209.430710,130.965897 196.840637,131.270966 
	C172.344681,131.130356 147.846664,131.137131 123.353531,130.794403 
	C108.428116,130.585556 94.209297,133.612717 80.486771,139.144531 
	C44.671413,153.582428 20.051931,190.015442 19.954288,228.639954 
	C19.898254,250.804901 20.123970,272.971191 19.958315,295.134888 
	C19.891869,304.025116 21.961109,312.306366 25.544989,320.287201 
	C33.519905,338.046417 53.147243,348.886017 73.049088,346.629730 
	C94.859299,344.157074 112.104836,329.441620 115.723793,309.782745 
	C116.773033,304.083069 117.206146,298.201324 117.251198,292.397858 
	C117.406425,272.400513 117.242210,252.400833 117.273239,232.402161 
	C117.276260,230.451538 117.786804,228.501694 118.986237,226.417496 
z"/>
<path fill="#08F93C" opacity="1.000000" stroke="none" 
	d="
M118.061768,226.551498 
	C117.786804,228.501694 117.276260,230.451538 117.273239,232.402161 
	C117.242210,252.400833 117.406425,272.400513 117.251198,292.397858 
	C117.206146,298.201324 116.773033,304.083069 115.723793,309.782745 
	C112.104836,329.441620 94.859299,344.157074 73.049088,346.629730 
	C53.147243,348.886017 33.519905,338.046417 25.544989,320.287201 
	C21.961109,312.306366 19.891869,304.025116 19.958315,295.134888 
	C20.123970,272.971191 19.898254,250.804901 19.954288,228.639954 
	C20.051931,190.015442 44.671413,153.582428 80.486771,139.144531 
	C94.209297,133.612717 108.428116,130.585556 123.353531,130.794403 
	C147.846664,131.137131 172.344681,131.130356 197.003540,131.583710 
	C195.695602,132.135834 194.202484,132.282257 192.757248,132.628479 
	C170.699921,137.912567 153.271957,150.446304 139.243561,167.778503 
	C125.447273,184.823914 118.204636,204.467468 118.061768,226.551498 
z"/>
<path fill="#08F83C" opacity="1.000000" stroke="none" 
	d="
M185.905899,13.121653 
	C204.069366,13.106730 222.234390,12.933781 240.395905,13.114643 
	C266.378235,13.373388 287.780457,35.015369 287.830444,60.795113 
	C287.880585,86.665115 266.825684,108.595558 240.790909,108.842735 
	C201.297409,109.217697 161.797394,109.184532 122.301849,108.984734 
	C84.947189,108.795776 55.273823,123.540390 33.126427,153.565384 
	C31.346668,155.978180 29.479258,158.326309 27.314419,160.463928 
	C27.307817,158.599045 27.668184,156.979980 27.966484,155.349594 
	C31.006315,138.734940 36.112148,122.780403 43.865528,107.773766 
	C57.215576,81.934799 75.403893,60.288239 99.558113,43.749615 
	C121.589165,28.664749 145.642349,18.858057 172.426620,14.768403 
	C177.194214,14.247670 181.550049,13.684661 185.905899,13.121653 
z"/>
<path fill="#018102" opacity="1.000000" stroke="none" 
	d="
M118.524002,226.484497 
	C118.204636,204.467468 125.447273,184.823914 139.243561,167.778503 
	C153.271957,150.446304 170.699921,137.912567 192.757248,132.628479 
	C194.202484,132.282257 195.695602,132.135834 197.440796,131.691299 
	C209.430710,130.965897 219.038803,135.982819 227.540207,143.334274 
	C243.468918,157.108414 246.809433,176.323624 241.560349,192.755661 
	C235.341644,212.223129 217.669052,225.633408 197.925537,226.008911 
	C175.279388,226.439636 152.619354,226.130600 129.965393,226.171249 
	C126.305542,226.177826 122.645950,226.331711 118.524002,226.484497 
z"/>
<path fill="#038204" opacity="1.000000" stroke="none" 
	d="
M172.014877,14.726126 
	C145.642349,18.858057 121.589165,28.664749 99.558113,43.749615 
	C75.403893,60.288239 57.215576,81.934799 43.865528,107.773766 
	C36.112148,122.780403 31.006315,138.734940 27.966484,155.349594 
	C27.668184,156.979980 27.307817,158.599045 27.024704,160.627014 
	C25.309933,165.349747 23.546719,169.668839 21.783503,173.987915 
	C21.437765,173.954437 21.092028,173.920975 20.746290,173.887497 
	C20.503046,172.708450 20.050861,171.529968 20.047606,170.350235 
	C19.990171,149.537292 19.353395,128.700867 20.118349,107.916489 
	C21.330736,74.974861 36.116718,49.002831 63.171310,30.239100 
	C80.065193,18.522337 98.953979,12.946943 119.584564,13.135098 
	C135.734421,13.282387 151.887360,13.092290 168.690704,13.330597 
	C170.233276,13.981441 171.124069,14.353783 172.014877,14.726126 
z"/>
<path fill="#4DA750" opacity="1.000000" stroke="none" 
	d="
M172.426620,14.768402 
	C171.124069,14.353783 170.233276,13.981441 169.155243,13.376690 
	C174.323502,13.035659 179.678986,12.927037 185.470184,12.970034 
	C181.550049,13.684661 177.194214,14.247670 172.426620,14.768402 
z"/>
</svg>