<?xml version="1.0" encoding="UTF-8"?>
<!DOCTYPE svg PUBLIC "-//W3C//DTD SVG 1.1//EN" "http://www.w3.org/Graphics/SVG/1.1/DTD/svg11.dtd">
<!-- Creator: CorelDRAW 2017 -->
<svg xmlns="http://www.w3.org/2000/svg" xml:space="preserve" width="150px" height="38px" version="1.1" style="shape-rendering:geometricPrecision; text-rendering:geometricPrecision; image-rendering:optimizeQuality; fill-rule:evenodd; clip-rule:evenodd"
viewBox="0 0 231.37 59.28"
 xmlns:xlink="http://www.w3.org/1999/xlink">
 <defs>
  <style type="text/css">
   <![CDATA[
    .fil1 {fill:#00A7E1;fill-rule:nonzero}
    .fil0 {fill:#143980;fill-rule:nonzero}
   ]]>
  </style>
 </defs>
 <g id="Layer_x0020_1">
  <metadata id="CorelCorpID_0Corel-Layer"/>
  <g id="_2765052065360">
   <path class="fil0" d="M59.17 42.63c0.13,1.69 1.27,2.83 3.59,2.83 1.98,0 3.59,-0.93 3.59,-2.62 0,-0.25 -0.05,-0.46 -0.09,-0.63 -0.12,-0.34 -1.1,-1.22 -2.82,-1.77l-3.42 -1.14c-6.54,-1.77 -7.55,-5.91 -7.6,-8.56 0,-2.66 0.98,-4.77 2.87,-6.42 1.9,-1.64 4.35,-2.49 7.3,-2.49 2.95,0 5.36,0.81 7.22,2.45 1.85,1.6 2.78,3.8 2.78,6.62l-7.05 0c0,-1.81 -1.01,-2.7 -3.03,-2.7 -1.9,0 -3.08,0.93 -3.08,2.32 0,1.06 0.88,1.82 2.7,2.37l3.33 1.05c5.36,1.65 8.06,4.6 8.06,8.86 0,2.03 -0.59,3.76 -1.73,5.15 -2.32,2.74 -5.49,3.71 -9.03,3.71 -3.25,0 -5.86,-0.8 -7.8,-2.45 -1.95,-1.64 -2.91,-3.84 -2.91,-6.58l7.12 0z"/>
   <polygon class="fil0" points="128.78,51.28 111.19,51.28 111.19,22.21 118.32,22.21 118.32,45.12 128.78,45.12 "/>
   <polygon class="fil0" points="206.48,51.28 187.24,51.28 187.24,22.21 206.1,22.21 206.1,28.37 194.29,28.37 194.29,33.94 204.67,33.94 204.67,39.97 194.29,39.97 194.29,45.12 206.48,45.12 "/>
   <path class="fil0" d="M217.02 42.63c0.13,1.69 1.27,2.83 3.59,2.83 1.98,0 3.59,-0.93 3.59,-2.62 0,-0.25 -0.05,-0.46 -0.09,-0.63 -0.12,-0.34 -1.09,-1.22 -2.82,-1.77l-3.42 -1.14c-6.54,-1.77 -7.55,-5.91 -7.6,-8.56 0,-2.66 0.98,-4.77 2.87,-6.42 1.9,-1.64 4.35,-2.49 7.3,-2.49 2.95,0 5.36,0.81 7.22,2.45 1.85,1.6 2.78,3.8 2.78,6.62l-7.05 0c0,-1.81 -1.01,-2.7 -3.03,-2.7 -1.9,0 -3.08,0.93 -3.08,2.32 0,1.06 0.88,1.82 2.7,2.37l3.33 1.05c5.36,1.65 8.06,4.6 8.06,8.86 0,2.03 -0.59,3.76 -1.73,5.15 -2.32,2.74 -5.49,3.71 -9.03,3.71 -3.25,0 -5.86,-0.8 -7.8,-2.45 -1.95,-1.64 -2.91,-3.84 -2.91,-6.58l7.12 0z"/>
   <polygon class="fil1" points="52.05,7.36 60.17,7.36 60.17,9.57 55.21,9.57 55.21,12.24 59.82,12.24 59.82,14.45 55.21,14.45 55.21,18.81 52.05,18.81 "/>
   <path class="fil1" d="M64.99 7.33l0 6.82c0,0.62 0.05,1.26 0.37,1.73 0.43,0.64 1.18,0.94 1.96,0.94 2.02,0 2.29,-1.64 2.29,-2.78l0 -6.71 3.1 0 0 6.65c0,1.27 -0.18,2.65 -0.89,3.49 -1.11,1.37 -3.17,1.64 -4.62,1.64 -5.42,0 -5.44,-3.37 -5.44,-5.25l0.02 -6.53 3.21 0z"/>
   <polygon class="fil1" points="74.95,7.33 79.34,7.33 83.23,15.88 83.19,7.33 85.98,7.33 85.98,18.81 81.68,18.81 77.72,9.89 77.75,18.81 74.95,18.81 "/>
   <path class="fil1" d="M91.56 16.6l1.37 0c2.11,-0.02 3.47,-0.92 3.47,-3.6 0,-3.48 -2.61,-3.48 -3.58,-3.48l-1.26 -0.02 0 7.1zm-3.26 -9.27l4.85 0c1.37,0 3.18,0.14 4.37,0.95 1.71,1.16 2.17,3.05 2.17,4.76 0,2.54 -0.81,4.42 -3.13,5.33 -1.18,0.44 -2.58,0.44 -3.38,0.44l-4.88 0 0 -11.48z"/>
   <path class="fil1" d="M107.47 14.39l-1.48 -4.82 -0.05 0 -1.59 4.82 3.12 0zm-3.3 -7.06l3.89 0 4.53 11.48 -3.6 0 -0.79 -2.31 -4.6 0 -0.78 2.31 -3.18 0 4.53 -11.48z"/>
   <path class="fil1" d="M120.5 10.94c-0.15,-1.17 -0.96,-1.6 -1.86,-1.6 -1.93,0 -2.52,1.77 -2.52,3.87 0,0.7 0.02,3.6 2.48,3.6 1.69,0 1.86,-1.23 1.93,-1.67l3.31 0c-0.02,3.59 -3.68,3.89 -5.17,3.89 -1.12,0 -3.09,-0.19 -4.36,-1.52 -1.26,-1.34 -1.48,-3.17 -1.48,-4.36 0,-1.58 0.37,-3.15 1.45,-4.38 1.17,-1.33 2.69,-1.68 4.36,-1.68 1.86,0 3.27,0.44 4.18,1.4 0.92,0.98 0.94,2.02 0.95,2.45l-3.27 0z"/>
   <polygon class="fil1" points="125.46,7.33 128.74,7.33 128.74,18.81 125.46,18.81 "/>
   <path class="fil1" d="M136.98 6.07l-2.1 0 1.76 -2.31 3.25 0 -2.91 2.31zm-0.61 10.67c2.28,0 2.66,-2.1 2.66,-3.69 0,-1.61 -0.38,-2.4 -0.73,-2.91 -0.46,-0.64 -1.21,-0.83 -1.91,-0.83 -2.1,0 -2.67,1.82 -2.67,3.79 0,1.83 0.54,3.64 2.65,3.64zm-4.36 -8.14c1.45,-1.47 3.65,-1.59 4.49,-1.59 4.58,0 5.82,3.29 5.82,6.09 0,4.58 -3.24,5.98 -5.98,5.98 -3.05,0 -5.9,-1.69 -5.9,-5.96 0,-0.77 0.13,-3.06 1.57,-4.52z"/>
   <polygon class="fil1" points="144.12,7.33 148.51,7.33 152.39,15.88 152.36,7.33 155.14,7.33 155.14,18.81 150.85,18.81 146.89,9.89 146.92,18.81 144.12,18.81 "/>
   <path class="fil1" d="M23.98 0.93c-12.71,0 -23.05,10.34 -23.05,23.05 0,12.71 10.34,23.06 23.05,23.06 12.71,0 23.05,-10.35 23.05,-23.06 0,-12.71 -10.34,-23.05 -23.05,-23.05zm0 47.04c-13.22,0 -23.98,-10.76 -23.98,-23.99 0,-13.22 10.76,-23.98 23.98,-23.98 13.22,0 23.98,10.76 23.98,23.98 0,13.23 -10.76,23.99 -23.98,23.99z"/>
   <path class="fil1" d="M23.98 20.33c-2.02,0 -3.66,1.64 -3.66,3.65 0,2.02 1.64,3.66 3.66,3.66 2.02,0 3.66,-1.64 3.66,-3.66 0,-2.01 -1.64,-3.65 -3.66,-3.65zm0 8.24c-2.53,0 -4.59,-2.06 -4.59,-4.59 0,-2.53 2.06,-4.59 4.59,-4.59 2.53,0 4.59,2.06 4.59,4.59 0,2.53 -2.06,4.59 -4.59,4.59z"/>
   <path class="fil1" d="M23.98 3.71c-11.18,0 -20.27,9.09 -20.27,20.27 0,11.18 9.09,20.28 20.27,20.28 11.18,0 20.28,-9.1 20.28,-20.28 0,-11.18 -9.1,-20.27 -20.28,-20.27zm0 41.48c-11.69,0 -21.21,-9.51 -21.21,-21.21 0,-11.69 9.52,-21.2 21.21,-21.2 11.69,0 21.21,9.51 21.21,21.2 0,11.7 -9.52,21.21 -21.21,21.21z"/>
   <path class="fil1" d="M23.98 6.49c-9.65,0 -17.49,7.85 -17.49,17.49 0,9.65 7.84,17.5 17.49,17.5 9.65,0 17.5,-7.85 17.5,-17.5 0,-9.64 -7.85,-17.49 -17.5,-17.49zm0 35.92c-10.16,0 -18.43,-8.26 -18.43,-18.43 0,-10.16 8.27,-18.43 18.43,-18.43 10.16,0 18.43,8.27 18.43,18.43 0,10.17 -8.27,18.43 -18.43,18.43z"/>
   <path class="fil1" d="M23.98 12.02c-6.6,0 -11.96,5.37 -11.96,11.96 0,6.6 5.36,11.97 11.96,11.97 6.6,0 11.97,-5.37 11.97,-11.97 0,-6.59 -5.37,-11.96 -11.97,-11.96zm0 24.86c-7.11,0 -12.89,-5.79 -12.89,-12.9 0,-7.11 5.78,-12.89 12.89,-12.89 7.11,0 12.9,5.78 12.9,12.89 0,7.11 -5.79,12.9 -12.9,12.9z"/>
   <path class="fil1" d="M23.98 14.79c-5.07,0 -9.19,4.12 -9.19,9.19 0,5.07 4.12,9.2 9.19,9.2 5.07,0 9.2,-4.13 9.2,-9.2 0,-5.07 -4.13,-9.19 -9.2,-9.19zm0 19.32c-5.58,0 -10.13,-4.54 -10.13,-10.13 0,-5.58 4.55,-10.12 10.13,-10.12 5.59,0 10.13,4.54 10.13,10.12 0,5.59 -4.54,10.13 -10.13,10.13z"/>
   <path class="fil1" d="M23.98 17.56c-3.54,0 -6.42,2.88 -6.42,6.42 0,3.55 2.88,6.43 6.42,6.43 3.55,0 6.43,-2.88 6.43,-6.43 0,-3.54 -2.88,-6.42 -6.43,-6.42zm0 13.78c-4.05,0 -7.36,-3.3 -7.36,-7.36 0,-4.05 3.31,-7.35 7.36,-7.35 4.06,0 7.36,3.3 7.36,7.35 0,4.06 -3.3,7.36 -7.36,7.36z"/>
   <path class="fil1" d="M23.98 9.23c-8.13,0 -14.75,6.62 -14.75,14.75 0,8.14 6.62,14.76 14.75,14.76 8.14,0 14.76,-6.62 14.76,-14.76 0,-8.13 -6.62,-14.75 -14.76,-14.75zm0 30.44c-8.65,0 -15.68,-7.04 -15.68,-15.69 0,-8.65 7.03,-15.68 15.68,-15.68 8.65,0 15.69,7.03 15.69,15.68 0,8.65 -7.04,15.69 -15.69,15.69z"/>
   <path class="fil0" d="M23.98 11.31c-1.41,0 -2.79,0.13 -4.13,0.36l0.19 0.91c1.28,-0.22 2.6,-0.33 3.94,-0.33 12.71,0 23.05,10.34 23.05,23.05 0,12.71 -10.34,23.05 -23.05,23.05 -7.72,0 -14.57,-3.82 -18.75,-9.67l-0.67 0.67c4.36,6.01 11.44,9.93 19.42,9.93 13.23,0 23.98,-10.76 23.98,-23.98 0,-13.23 -10.75,-23.99 -23.98,-23.99z"/>
   <path class="fil0" d="M23.98 30.71c-0.04,0 -0.08,0 -0.13,0l0.2 0.93c1.98,0.04 3.59,1.66 3.59,3.66 0,1.46 -0.87,2.73 -2.12,3.31l0.19 0.93c1.68,-0.68 2.86,-2.32 2.86,-4.24 0,-2.53 -2.06,-4.59 -4.59,-4.59z"/>
   <path class="fil0" d="M23.98 14.09c-1.21,0 -2.4,0.1 -3.56,0.3l0.19 0.91c1.1,-0.18 2.22,-0.28 3.37,-0.28 11.18,0 20.28,9.1 20.28,20.28 0,11.18 -9.1,20.27 -20.28,20.27 -5.67,0 -10.8,-2.33 -14.48,-6.1l-0.66 0.66c3.85,3.93 9.22,6.38 15.14,6.38 11.7,0 21.21,-9.52 21.21,-21.21 0,-11.69 -9.51,-21.21 -21.21,-21.21z"/>
   <path class="fil0" d="M23.98 16.87c-1.02,0 -2.01,0.08 -2.99,0.24l0.2 0.91c0.91,-0.14 1.84,-0.22 2.79,-0.22 9.65,0 17.5,7.85 17.5,17.5 0,9.65 -7.85,17.49 -17.5,17.49 -3.6,0 -6.95,-1.09 -9.74,-2.96l-0.67 0.67c2.97,2.04 6.55,3.23 10.41,3.23 10.16,0 18.43,-8.27 18.43,-18.43 0,-10.16 -8.27,-18.43 -18.43,-18.43z"/>
   <path class="fil0" d="M23.98 22.4c-0.62,0 -1.24,0.05 -1.85,0.13l0.2 0.91c0.54,-0.07 1.09,-0.11 1.65,-0.11 6.6,0 11.97,5.37 11.97,11.97 0,6.59 -5.37,11.96 -11.97,11.96 -0.23,0 -0.47,-0.01 -0.7,-0.02l0 0.93c0.23,0.02 0.47,0.02 0.7,0.02 7.11,0 12.9,-5.78 12.9,-12.89 0,-7.11 -5.79,-12.9 -12.9,-12.9z"/>
   <path class="fil0" d="M23.98 25.17c-0.43,0 -0.86,0.03 -1.27,0.08l0.19 0.92c0.35,-0.05 0.72,-0.07 1.08,-0.07 5.07,0 9.2,4.13 9.2,9.2 0,4.68 -3.53,8.57 -8.07,9.12l0 0.94c5.05,-0.56 9,-4.86 9,-10.06 0,-5.59 -4.55,-10.13 -10.13,-10.13z"/>
   <path class="fil0" d="M23.98 27.94c-0.23,0 -0.47,0.01 -0.7,0.03l0.19 0.93c0.17,-0.02 0.34,-0.03 0.51,-0.03 3.54,0 6.43,2.88 6.43,6.43 0,2.8 -1.81,5.19 -4.31,6.06l0.19 0.92c2.93,-0.97 5.05,-3.73 5.05,-6.98 0,-4.06 -3.3,-7.36 -7.36,-7.36z"/>
   <path class="fil0" d="M23.98 19.61c-0.82,0 -1.63,0.07 -2.42,0.19l0.19 0.91c0.73,-0.11 1.47,-0.17 2.23,-0.17 8.14,0 14.76,6.62 14.76,14.76 0,8.13 -6.62,14.75 -14.76,14.75 -1.54,0 -3.03,-0.23 -4.43,-0.68l-0.73 0.74c1.62,0.57 3.35,0.87 5.16,0.87 8.65,0 15.69,-7.03 15.69,-15.68 0,-8.65 -7.04,-15.69 -15.69,-15.69z"/>
   <path class="fil0" d="M96.97 42.29c1.52,-1.51 2.28,-3.37 2.28,-5.52 0,-2.15 -0.76,-4.01 -2.28,-5.53 -1.52,-1.56 -3.33,-2.32 -5.48,-2.32 -2.15,0 -3.97,0.76 -5.44,2.32 -1.48,1.52 -2.24,3.38 -2.24,5.53 0,2.15 0.76,4.01 2.24,5.52 1.47,1.52 3.29,2.28 5.44,2.28 2.15,0 4.01,-0.76 5.48,-2.28zm-15.99 -16.07c2.91,-2.91 6.42,-4.39 10.51,-4.39 4.13,0 7.63,1.48 10.5,4.39 2.91,2.91 4.35,6.41 4.35,10.55 0,4.09 -1.44,7.63 -4.35,10.55 -2.87,2.91 -6.37,4.34 -10.5,4.34 -4.09,0 -7.55,-1.43 -10.47,-4.34 -2.9,-2.92 -4.34,-6.46 -4.34,-10.55 0,-4.14 1.44,-7.64 4.3,-10.55z"/>
   <polygon class="fil1" points="143.79,51.28 136.71,51.28 136.71,38.2 125.36,22.21 133.75,22.21 140.21,32.76 146.79,22.21 155.14,22.21 143.79,38.33 "/>
   <path class="fil0" d="M164.59 28.5l0 16.49 4.43 0c1.94,0 3.46,-0.8 4.52,-2.36 1.09,-1.6 1.64,-3.54 1.64,-5.82 0,-2.32 -0.55,-4.26 -1.64,-5.86 -1.06,-1.65 -2.58,-2.45 -4.52,-2.45l-4.43 0zm-7.09 22.78l0 -29.07 11.52 0c4.09,0 7.3,1.4 9.66,4.14 2.36,2.74 3.55,6.2 3.55,10.46 0,4.22 -1.19,7.68 -3.55,10.42 -2.32,2.7 -5.57,4.05 -9.66,4.05l-11.52 0z"/>
  </g>
 </g>
</svg>
