<?xml version="1.0" standalone="no"?>
<!DOCTYPE svg PUBLIC "-//W3C//DTD SVG 20010904//EN"
 "http://www.w3.org/TR/2001/REC-SVG-20010904/DTD/svg10.dtd">
<svg version="1.0" xmlns="http://www.w3.org/2000/svg"
 width="365.000000pt" height="365.000000pt" viewBox="0 0 365.000000 365.000000"
 preserveAspectRatio="xMidYMid meet">

<g transform="translate(0.000000,365.000000) scale(0.100000,-0.100000)"
fill="#25D366" stroke="none">
<path d="M1677 3419 c-42 -5 -130 -23 -194 -40 -475 -122 -873 -457 -1076
-906 -78 -172 -130 -387 -143 -583 -15 -248 52 -574 167 -801 l28 -56 -180
-404 c-98 -222 -179 -409 -179 -416 0 -6 7 -16 17 -21 19 -11 33 -6 453 183
168 75 312 137 320 137 8 1 53 -25 100 -57 392 -269 931 -342 1398 -189 516
169 921 594 1062 1115 149 552 0 1135 -395 1548 -313 327 -734 504 -1185 500
-63 -1 -150 -6 -193 -10z m521 -88 c557 -123 986 -507 1162 -1040 57 -172 74
-285 74 -486 0 -136 -4 -193 -22 -283 -63 -314 -209 -590 -427 -807 -118 -117
-203 -183 -334 -258 -162 -92 -360 -160 -546 -188 -102 -15 -337 -15 -440 0
-258 39 -511 144 -713 297 -34 26 -48 31 -65 25 -12 -5 -165 -72 -340 -150
-175 -78 -323 -141 -329 -141 -5 0 -8 6 -5 13 3 6 76 169 161 361 86 191 156
354 156 360 0 7 -18 48 -39 91 -290 593 -173 1299 292 1773 214 218 469 359
768 426 156 34 160 34 369 31 141 -3 207 -8 278 -24z"/>
<path d="M1316 2781 c-32 -12 -367 -354 -388 -396 -104 -202 101 -613 512
-1025 256 -257 506 -431 727 -507 107 -36 227 -38 293 -4 49 25 371 337 396
383 29 55 13 128 -38 174 -41 38 -377 232 -412 238 -51 10 -91 -12 -179 -98
-50 -48 -87 -76 -100 -76 -119 1 -451 299 -548 491 -45 90 -42 99 57 201 l86
88 -4 62 c-5 59 -12 75 -108 233 -109 182 -130 209 -172 231 -29 15 -90 18
-122 5z m112 -79 c27 -27 219 -353 227 -385 6 -24 -4 -38 -84 -121 -90 -93
-91 -95 -91 -144 0 -182 416 -615 623 -649 58 -9 80 2 163 87 43 45 89 83 101
86 27 7 51 -5 238 -115 165 -98 195 -123 195 -165 0 -25 -26 -56 -167 -199
-93 -93 -181 -175 -196 -183 -106 -56 -302 0 -532 151 -575 378 -1055 1070
-906 1307 11 18 91 104 179 191 147 145 161 157 195 157 23 0 44 -7 55 -18z"/>
</g>
</svg>
